<svg id="Layer_1" data-name="Layer 1" xmlns="http://www.w3.org/2000/svg" viewBox="0 0 2383.94 548.81"><defs><style>.cls-1{fill:#3985c2;}.cls-10,.cls-11,.cls-12,.cls-13,.cls-14,.cls-15,.cls-16,.cls-2,.cls-3,.cls-4,.cls-5,.cls-6,.cls-7,.cls-8,.cls-9{fill:#e9e9ea;}.cls-3{font-size:50.22px;}.cls-3,.cls-4,.cls-5{font-family:MyriadPro-Regular, Myriad Pro;}.cls-4{font-size:101.92px;}.cls-5{font-size:33.06px;}.cls-6{font-size:66.05px;}.cls-10,.cls-11,.cls-12,.cls-13,.cls-14,.cls-15,.cls-6,.cls-7,.cls-8,.cls-9{font-family:Webdings, Webdings;}.cls-7{font-size:71.14px;}.cls-8{font-size:51.74px;}.cls-9{font-size:49.15px;}.cls-10{font-size:52.21px;}.cls-11{font-size:92.91px;}.cls-12{font-size:52.29px;}.cls-13{font-size:73.66px;}.cls-14{font-size:40.42px;}.cls-15{font-size:80.64px;}.cls-16{font-size:49.75px;font-family:MSOutlook, MS Outlook;}.cls-17{fill:none;stroke:#e9e9ea;stroke-miterlimit:10;stroke-width:10px;}.cls-18{fill:#7fadd6;}</style></defs><title>index_top_banner</title><rect class="cls-1" y="23.76" width="2383.94" height="524.41"/><path class="cls-2" d="M422,313.11l-.87-.31c0-.18.07-.37.11-.55l.94.08c0-.2.07-.41.09-.61l-.92-.2c0-.19,0-.37,0-.56l.94,0c0-.21,0-.41,0-.62l-.94-.08c0-.19,0-.38,0-.56l.93-.15c0-.21,0-.41-.06-.62l-.95,0c0-.19-.06-.37-.09-.55l.91-.27c0-.2-.08-.4-.14-.6l-.93.15c0-.18-.11-.36-.17-.54l.87-.38q-.1-.29-.21-.58l-.92.27c-.07-.17-.14-.35-.22-.52l.82-.49c-.09-.19-.18-.37-.28-.55l-.88.39c-.09-.16-.19-.32-.29-.48l.75-.59q-.17-.26-.35-.51l-.82.49c-.11-.15-.24-.29-.36-.43l.68-.69-.41-.46-.76.6-.4-.4.58-.76-.46-.41-.68.69-.44-.35.48-.83-.51-.34-.58.76-.49-.28.38-.89-.55-.27-.49.83-.52-.21.26-.93-.29-.11-.29-.1-.38.89-.54-.16.15-1-.6-.13-.27.94-.55-.09,0-1-.61-.05-.14,1h-.56l-.1-1-.62,0,0,1-.56.06-.22-.94-.61.1.1,1-.55.12-.33-.89-.59.18.22.93-.53.19-.44-.85-.56.25.33.89-.49.27-.54-.79-.53.32.44.85L405,302l-.63-.71-.48.38.54.78-.42.37-.71-.62-.43.44.63.7c-.13.14-.24.29-.36.43l-.79-.53-.37.49.71.62-.31.47-.84-.42c-.11.18-.21.35-.31.54l.78.52c-.09.16-.18.33-.26.5l-.87-.31q-.13.28-.24.57l.83.42c0,.09-.08.17-.11.26s-.05.18-.08.27l-.91-.2c-.06.2-.12.4-.17.6l.87.31c0,.18-.07.37-.11.55l-.92-.08c0,.2-.07.41-.09.61l.9.19c0,.19,0,.37,0,.56l-.92,0c0,.21,0,.41,0,.62l.92.08c0,.19,0,.38,0,.56l-.9.15q0,.31.07.62l.91,0c0,.19.06.37.09.55l-.88.26q.06.31.14.61l.89-.15c0,.18.11.36.17.54l-.83.37q.1.3.22.58l.87-.26c.07.17.14.35.22.52l-.77.46c.09.19.19.37.29.55l.83-.36c.09.16.19.32.29.48l-.71.56c.11.17.23.35.35.51l.76-.46c.11.15.24.29.36.43l-.63.64.42.47.71-.55.4.4-.54.71.47.41.63-.64.44.35-.45.77.52.35.54-.71.49.28-.35.83.56.28.45-.77.52.21-.24.86.29.11.3.1.35-.82.54.16-.13.88.61.13.25-.87.55.09,0,.89.62.06.13-.88h.56l.09.9.62,0,0-.89.56-.06.2.87.62-.1-.09-.9.55-.12.31.84.6-.18-.2-.88.53-.19.41.8.57-.25-.31-.84.49-.27.51.75.54-.32-.42-.81.47-.31.6.68.49-.38-.52-.75.42-.37.69.6.44-.44-.6-.68c.13-.14.24-.29.36-.43l.77.51c.13-.16.26-.32.38-.49l-.69-.6.31-.47.82.41q.16-.26.31-.54l-.77-.52c.09-.16.18-.33.26-.5l.87.31q.13-.28.24-.57l-.83-.42c0-.09.08-.17.11-.26s.05-.18.08-.27l.91.2Q422,313.41,422,313.11Z" transform="translate(886 -128.24)"/><text class="cls-3" transform="matrix(1.1, 0.51, -0.42, 0.91, 1360.93, 250.78)">a</text><text class="cls-4" transform="matrix(1.1, 0.51, -0.42, 0.91, 1718.88, 176.68)">a</text><text class="cls-5" transform="matrix(1.12, 0.52, -0.42, 0.91, 1054.17, 167.17)">1</text><text class="cls-3" transform="matrix(1.1, 0.51, -0.42, 0.91, 818.8, 156.64)">d</text><text class="cls-6" transform="translate(1066 134.18)">a</text><text class="cls-7" transform="matrix(0.76, 1.03, -0.81, 0.59, 1039.03, 46.62)">e</text><text class="cls-8" transform="matrix(1.28, 0.01, -0.01, 1, 1443, 122.97)">e</text><text class="cls-9" transform="translate(856.76 212.17) rotate(40.59)">q</text><text class="cls-10" transform="translate(1770.3 123.75) rotate(40.59)">q</text><text class="cls-11" transform="translate(1391.79 163.45) rotate(-139.41)">r</text><text class="cls-12" transform="translate(620.25 60.37) rotate(-139.41)">r</text><text class="cls-9" transform="matrix(0.91, -0.41, 0.41, 0.91, 956.18, 73.46)">h</text><text class="cls-9" transform="matrix(0.91, -0.41, 0.41, 0.91, 1274.66, 112.52)">d</text><text class="cls-13" transform="matrix(0.91, -0.41, 0.41, 0.91, 918.73, 251.68)">j</text><text class="cls-13" transform="matrix(0.91, -0.41, 0.41, 0.91, 1355.82, 149.35)">j</text><text class="cls-9" transform="matrix(0.91, -0.41, 0.41, 0.91, 958.38, 164.45)">k</text><text class="cls-9" transform="matrix(0.87, -0.49, 0.49, 0.87, 1006.63, 60.33)">l</text><text class="cls-9" transform="matrix(0.91, -0.41, 0.41, 0.91, 620.28, 96.27)">z</text><text class="cls-9" transform="matrix(0.66, 0.75, -0.75, 0.66, 389.56, 171.33)">u</text><text class="cls-14" transform="matrix(0.66, 0.75, -0.75, 0.66, 1609.2, 112.56)">u</text><text class="cls-15" transform="matrix(0.84, 0.54, -0.54, 0.84, 1283.69, 264.45)">v</text><text class="cls-9" transform="translate(949.69 235.46) rotate(40.59)">y</text><text class="cls-9" transform="translate(1297.09 46.58) rotate(40.59)">y</text><text class="cls-16" transform="matrix(0.67, -0.14, 0.2, 0.98, 645.18, 162.89)">A</text><text class="cls-16" transform="matrix(0.67, -0.14, 0.2, 0.98, 1958.68, 131.75)">A</text><text x="886" y="-128.24"></text><text x="886" y="-128.24"></text><line class="cls-17" x1="1190.53" y1="227.76" x2="1190.53" y2="22.77"/><line class="cls-17" x1="1167.35" y1="232.51" x2="1167.35" y2="23.76"/><line class="cls-17" x1="1214.72" y1="235.47" x2="1214.72" y2="23.76"/><line class="cls-17" x1="1262.08" y1="251.68" x2="1262.08" y2="23.76"/><line class="cls-17" x1="1121.03" y1="251.68" x2="1121.03" y2="23.76"/><polyline class="cls-17" points="1237.74 237.19 1237.74 189.45 1356.16 68.53 2013.05 68.53 2034.48 65.76"/><polyline class="cls-17" points="1283.68 286.26 1283.68 250.73 1317.39 215.38 1394.56 215.38 1819.06 215.38 2010.49 24.76"/><polyline class="cls-17" points="1143.25 240.15 1143.25 204.22 1045.12 102.62 544.51 102.62"/><polyline class="cls-17" points="289 222.59 652.12 222.59 692.65 182.06 998.6 182.06 1076.08 182.06 1094.72 200.7 1100.72 289.89"/><path class="cls-17" d="M-393.67,350.76" transform="translate(886 -128.24)"/><path class="cls-2" d="M421,486.67a17,17,0,0,1,.41,12.7c-1.23,3.49-3,10.95-5.07,26.81-4.2,31.7-18.65,27-18.65,27s-4.38,24.84-13.44,44.21c-6.14,13.14-9.94,6.79-15.47,19.2-17.25,38.69,21.91,60.42,21.91,60.42H221.82s39.17-21.73,21.92-60.42c-5.53-12.41-9.33-6.06-15.48-19.2-9.06-19.37-13.43-44.21-13.43-44.21s-14.45,4.66-18.65-27c-2.1-15.86-3.85-23.32-5.07-26.81a17,17,0,0,1,.41-12.7c2.18-4.76,6.39-9,14.45-6.65,0,0-30.26-124,100.26-124S406.5,480,406.5,480C414.56,477.65,418.76,481.91,421,486.67Zm-31.26-49.54c9.79-17.72-3.73-21.68-3.73-21.68,1.4-21.22-13-17.49-13-17.49-1.87-22.38-17.72-15.38-17.72-15.38-1.4-18.19-23.31-11.66-23.31-11.66-11.66-17.25-25.65,1.86-25.65,1.86V460H384.1C400.41,447.85,389.69,437.13,389.69,437.13ZM302,460V372.78s-14-19.11-25.65-1.86c0,0-21.91-6.53-23.31,11.66,0,0-15.85-7-17.72,15.38,0,0-14.45-3.73-13.05,17.49,0,0-13.52,4-3.73,21.68,0,0-10.72,10.72,5.59,22.84Z" transform="translate(886 -128.24)"/><path class="cls-2" d="M369.38,432.63l-1.31.24c0,.29,0,.58-.05.86l1.25.4a10.06,10.06,0,0,1-.24,1.24l-1.33-.08a7.46,7.46,0,0,1-.26.8l1.12.71a10,10,0,0,1-.55,1.14l-1.26-.41c-.15.24-.3.47-.46.7l.92,1c-.26.34-.53.66-.82,1l-1.12-.71a8.09,8.09,0,0,1-.61.56l.64,1.17a10.73,10.73,0,0,1-1,.74l-.92-1q-.35.21-.72.39l.34,1.3a12.2,12.2,0,0,1-1.19.46l-.64-1.17c-.26.08-.53.15-.8.21v1.33c-.42.07-.84.13-1.27.16l-.33-1.3-.41,0-.41,0-.33,1.3c-.43,0-.85-.09-1.27-.16v-1.33c-.27-.06-.54-.13-.8-.21l-.64,1.17a12.2,12.2,0,0,1-1.19-.46l.34-1.3q-.37-.18-.72-.39l-.92,1a10.73,10.73,0,0,1-1-.74L352,440c-.21-.18-.41-.36-.61-.56l-1.12.71c-.29-.31-.56-.63-.82-1l.92-1c-.16-.23-.31-.46-.45-.7l-1.27.41a10,10,0,0,1-.55-1.14l1.12-.71a7.46,7.46,0,0,1-.26-.8l-1.33.08a12.35,12.35,0,0,1-.24-1.24l1.25-.4c0-.28,0-.57-.05-.86l-1.31-.24a10.39,10.39,0,0,1,.08-1.26l1.32-.08a6,6,0,0,1,.15-.85l-1.2-.56a9.84,9.84,0,0,1,.38-1.2l1.29.25c.11-.27.24-.54.37-.79l-1-.84c.21-.37.43-.72.67-1.06l1.19.56c.18-.24.36-.46.56-.68l-.78-1.06a10.53,10.53,0,0,1,.91-.86l1,.83c.23-.19.46-.36.71-.53l-.48-1.21a10.5,10.5,0,0,1,1.09-.61l.77,1.06c.27-.12.55-.23.83-.33l-.17-1.3a11.91,11.91,0,0,1,1.21-.31l.48,1.22a8.65,8.65,0,0,1,.89-.11l.16-1.3.62,0,.62,0,.17,1.3a8.46,8.46,0,0,1,.88.11l.48-1.22a11.91,11.91,0,0,1,1.21.31l-.17,1.3c.29.1.56.21.83.33l.77-1.06a10.5,10.5,0,0,1,1.09.61l-.48,1.21c.25.17.48.34.71.53l1-.83a10.53,10.53,0,0,1,.91.86l-.78,1.06c.2.22.38.44.56.68l1.19-.56c.24.34.46.69.67,1.06l-1,.84c.13.25.26.52.37.79l1.29-.25a9.84,9.84,0,0,1,.38,1.2l-1.2.56a8,8,0,0,1,.16.85l1.31.08A10.39,10.39,0,0,1,369.38,432.63Zm-5.7.18a5.34,5.34,0,1,0-5.53,5.15A5.34,5.34,0,0,0,363.68,432.81Z" transform="translate(886 -128.24)"/><path class="cls-2" d="M356.31,408.78h0l-1.91.36c0,.42,0,.83-.08,1.24l1.84.6a18.08,18.08,0,0,1-.35,1.81l-1.95-.12a11.46,11.46,0,0,1-.39,1.17l1.64,1a15,15,0,0,1-.8,1.67l-1.85-.6c-.21.35-.42.69-.66,1l1.33,1.42a18,18,0,0,1-1.19,1.43l-1.64-1.05c-.28.29-.58.56-.89.83l.94,1.7a16.06,16.06,0,0,1-1.51,1.09L347.5,421c-.34.21-.69.4-1.05.58l.49,1.89a18.51,18.51,0,0,1-1.74.69l-.94-1.71c-.38.11-.77.21-1.16.3v1.94a16.29,16.29,0,0,1-1.86.23l-.48-1.9c-.2,0-.39,0-.6,0s-.39,0-.59,0l-.49,1.9a16.12,16.12,0,0,1-1.85-.23v-1.94c-.39-.09-.78-.19-1.16-.3l-.94,1.71a18.51,18.51,0,0,1-1.74-.69l.49-1.89c-.36-.18-.71-.37-1.05-.58l-1.34,1.43a16.06,16.06,0,0,1-1.51-1.09l.94-1.7c-.31-.27-.61-.54-.89-.83l-1.64,1.05a18.16,18.16,0,0,1-1.2-1.43l1.34-1.41c-.24-.34-.45-.68-.66-1l-1.86.6a17,17,0,0,1-.79-1.67l1.64-1c-.15-.38-.28-.77-.4-1.17l-1.94.12a18.08,18.08,0,0,1-.35-1.81l1.84-.6c-.05-.41-.07-.82-.08-1.24l-1.91-.36h0a16.08,16.08,0,0,1,.11-1.84l1.92-.11c.06-.42.13-.84.23-1.25l-1.76-.82a17,17,0,0,1,.57-1.75l1.88.37a12.39,12.39,0,0,1,.54-1.17L326,401a17.63,17.63,0,0,1,1-1.55l1.74.82c.26-.34.53-.68.82-1l-1.14-1.55a17.65,17.65,0,0,1,1.33-1.26l1.47,1.22c.34-.27.68-.53,1-.77l-.71-1.78a15.48,15.48,0,0,1,1.6-.88l1.12,1.55c.4-.18.8-.34,1.21-.48l-.24-1.91A17,17,0,0,1,337,393l.7,1.78c.42-.07.86-.13,1.3-.16l.23-1.9c.3,0,.61,0,.91,0s.61,0,.92,0l.23,1.9c.44,0,.87.09,1.3.16l.7-1.78a17.64,17.64,0,0,1,1.77.45l-.25,1.91a12.87,12.87,0,0,1,1.22.48l1.12-1.55a16.59,16.59,0,0,1,1.6.88l-.71,1.78c.36.24.71.5,1.05.77l1.47-1.22a17.65,17.65,0,0,1,1.33,1.26l-1.14,1.55c.29.32.56.66.82,1l1.74-.82a15.47,15.47,0,0,1,1,1.55l-1.48,1.23c.19.37.38.76.54,1.16l1.88-.37a14.86,14.86,0,0,1,.56,1.75l-1.75.82a10.54,10.54,0,0,1,.22,1.25l1.93.11A16.08,16.08,0,0,1,356.31,408.78Zm-3.32,0a12.83,12.83,0,1,0-12.83,12.83A12.82,12.82,0,0,0,353,408.76Z" transform="translate(886 -128.24)"/><path class="cls-2" d="M340.16,403.32a5.45,5.45,0,1,1-5.44,5.44A5.45,5.45,0,0,1,340.16,403.32Zm4.54,5.44a4.54,4.54,0,1,0-4.54,4.54A4.53,4.53,0,0,0,344.7,408.76Z" transform="translate(886 -128.24)"/><path class="cls-2" d="M293.56,417.94l2.47.21c0,.54,0,1.08,0,1.63l-2.47.09c0,.49-.07,1-.13,1.46l2.41.52c-.07.54-.15,1.07-.25,1.61l-2.46-.22c-.09.48-.17,1-.28,1.44l2.28.81q-.19.78-.45,1.56l-2.38-.51c-.08.23-.13.47-.21.7s-.19.45-.28.68L294,429c-.2.51-.42,1-.64,1.5l-2.28-.8c-.2.44-.45.87-.68,1.3l2,1.35c-.26.48-.54.95-.82,1.41l-2.16-1.09c-.26.42-.54.83-.82,1.23l1.82,1.58q-.48.66-1,1.29l-2-1.34c-.31.37-.61.76-.95,1.12l1.59,1.78c-.37.39-.76.78-1.15,1.15l-1.8-1.57c-.36.34-.73.66-1.11,1l1.37,2c-.42.35-.85.68-1.29,1l-1.58-1.78c-.4.29-.81.55-1.23.82l1.1,2.12c-.46.29-.93.57-1.4.83l-1.35-2c-.43.24-.86.49-1.3.7l.81,2.21c-.49.23-1,.45-1.5.65l-1.08-2.1q-.69.27-1.38.51l.53,2.3c-.52.17-1,.33-1.57.47l-.8-2.2c-.48.13-1,.21-1.44.31l.23,2.35c-.53.1-1.07.19-1.61.26l-.53-2.29c-.49.06-1,.12-1.46.16l-.06,2.34c-.54,0-1.09.06-1.64.06l-.23-2.35c-.49,0-1,0-1.47,0l-.35,2.31c-.55,0-1.09-.08-1.63-.14l.05-2.34c-.48-.06-1-.15-1.45-.24l-.64,2.27c-.53-.1-1.07-.22-1.6-.35l.35-2.31c-.47-.12-.94-.27-1.41-.42l-.91,2.16-.78-.25-.77-.29.64-2.26c-.46-.18-.91-.36-1.36-.56l-1.17,2c-.5-.23-1-.47-1.47-.73l.92-2.17c-.43-.23-.86-.47-1.28-.72l-1.41,1.85c-.47-.29-.92-.59-1.37-.91l1.18-2c-.4-.29-.78-.59-1.16-.9L247.81,441q-.63-.52-1.23-1.08L248,438c-.36-.33-.69-.69-1-1l-1.85,1.45c-.38-.39-.74-.8-1.1-1.22l1.66-1.68c-.31-.37-.64-.74-.93-1.13l-2,1.2c-.33-.44-.63-.89-.93-1.35l1.86-1.46c-.27-.41-.52-.83-.76-1.26l-2.16,1c-.27-.48-.52-1-.76-1.45l2-1.21c-.21-.45-.39-.91-.57-1.36l-2.28.68q-.31-.76-.57-1.53l2.18-1c-.15-.47-.31-.93-.44-1.41l-2.34.39c-.14-.52-.26-1.06-.37-1.59l2.29-.68c-.09-.48-.18-1-.24-1.45l-2.39.09c-.07-.54-.13-1.08-.17-1.62l2.34-.39c0-.49,0-1,0-1.47l-2.41-.21c0-.54,0-1.09,0-1.63l2.41-.09q0-.73.12-1.47l-2.36-.51c.07-.53.15-1.07.24-1.61l2.43.22c.09-.49.16-1,.28-1.45l-2.27-.8c.13-.52.28-1,.44-1.57l2.38.52c.08-.23.13-.47.21-.7s.19-.45.28-.68l-2.18-1.1q.28-.76.63-1.5l2.28.81c.21-.45.46-.87.69-1.3l-2.05-1.38c.26-.47.53-.94.81-1.4l2.2,1.1c.26-.41.53-.82.82-1.22l-1.86-1.62c.31-.44.64-.87,1-1.29l2.06,1.38c.31-.38.61-.77.94-1.13l-1.64-1.83c.37-.4.75-.78,1.14-1.15l1.87,1.62c.36-.33.73-.65,1.1-1l-1.41-2.05c.41-.35.83-.69,1.27-1l1.65,1.85c.4-.29.81-.55,1.22-.81l-1.15-2.23c.46-.29.92-.57,1.39-.83l1.42,2.06c.43-.23.85-.48,1.3-.69l-.86-2.35c.48-.23,1-.44,1.48-.65l1.15,2.24c.46-.19.91-.36,1.38-.51l-.57-2.45c.52-.17,1-.33,1.55-.47l.86,2.34c.48-.12,1-.2,1.44-.3l-.25-2.52c.53-.1,1.06-.19,1.59-.26l.57,2.46c.48-.06,1-.12,1.46-.16l.06-2.52c.54,0,1.08-.06,1.61-.07l.26,2.53c.49,0,1,0,1.47,0l.38-2.49c.53,0,1.07.08,1.61.14l-.07,2.52c.49.06,1,.16,1.45.24l.7-2.45c.52.1,1,.22,1.57.35l-.38,2.5c.48.12.94.27,1.41.42l1-2.34.76.25.76.28-.69,2.45c.45.18.91.35,1.36.56l1.27-2.19q.73.34,1.44.72l-1,2.35c.44.23.87.46,1.28.72l1.54-2c.45.28.9.58,1.34.89l-1.27,2.18c.4.29.78.6,1.16.91l1.78-1.81c.42.34.82.7,1.22,1.06l-1.54,2c.36.34.7.69,1,1.05l2-1.56c.37.39.73.79,1.07,1.2l-1.78,1.8c.32.38.64.75.94,1.14l2.14-1.28c.31.43.62.88.91,1.33l-2,1.56q.39.61.75,1.26l2.31-1c.26.47.51.95.74,1.44L291,406.64c.21.44.39.9.57,1.36l2.4-.72c.2.5.39,1,.56,1.52l-2.29,1c.15.47.31.93.44,1.4l2.45-.4c.13.52.25,1.05.36,1.58l-2.4.71c.1.48.18,1,.25,1.45l2.48-.1c.07.54.12,1.08.16,1.62l-2.43.4C293.57,417,293.56,417.45,293.56,417.94Zm-4.23,5.86a23.5,23.5,0,0,0-12.9-27l-4.56,12.93a9.92,9.92,0,0,1,4.53,9.48ZM287.84,428l-12.93-4.56a10,10,0,0,1-9.48,4.54l-4.56,12.93A23.49,23.49,0,0,0,287.84,428Zm-15.71-7.92a5.93,5.93,0,1,0-7.57,3.62A5.94,5.94,0,0,0,272.13,420.11Zm-4.5-11.85,4.56-12.92a23.49,23.49,0,0,0-27,12.9l12.92,4.56A10,10,0,0,1,267.63,408.26Zm-11,31.18,4.56-12.92a9.94,9.94,0,0,1-4.54-9.48l-12.93-4.56A23.48,23.48,0,0,0,256.64,439.44Z" transform="translate(886 -128.24)"/><circle class="cls-2" cx="316.27" cy="227.76" r="74.31"/><circle class="cls-2" cx="489.16" cy="102.76" r="76.27"/><circle class="cls-2" cx="901.59" cy="105.44" r="58"/><circle class="cls-2" cx="1191.97" cy="123.7" r="51.5"/><circle class="cls-2" cx="1452.81" cy="200.76" r="61"/><circle class="cls-2" cx="1732.81" cy="77.76" r="54"/><circle class="cls-2" cx="1887.81" cy="152.98" r="64.5"/><circle class="cls-2" cx="2067.29" cy="77.76" r="53"/><path class="cls-18" d="M-535.12,353.52a2.78,2.78,0,0,0-2.77-2.77h-6.92V331.35h0a24.91,24.91,0,0,0-24.91-24.73,24.91,24.91,0,0,0-24.91,24.73h0v19.41h-6.92a2.78,2.78,0,0,0-2.77,2.77v38.76a2.78,2.78,0,0,0,2.77,2.77h63.67a2.78,2.78,0,0,0,2.77-2.77M-585,331.35s0,0,0,.07a15.26,15.26,0,0,1,15.22-15.11,15.26,15.26,0,0,1,15.22,15.11s0,0,0-.07v19.41H-585Zm20.44,48.56h-10.42l3.35-9.75a5.5,5.5,0,0,1-3.66-5.18,5.52,5.52,0,0,1,5.52-5.52,5.52,5.52,0,0,1,5.52,5.52,5.5,5.5,0,0,1-3.66,5.18Z" transform="translate(886 -128.24)"/><path class="cls-18" d="M-396.84,191.94A21.82,21.82,0,0,1-375,213.77a21.82,21.82,0,0,1-21.83,21.82,21.82,21.82,0,0,1-21.82-21.82,21.82,21.82,0,0,1,21.82-21.83" transform="translate(886 -128.24)"/><path class="cls-18" d="M-379,233.68a26.63,26.63,0,0,1-17.83,6.83,26.6,26.6,0,0,1-17.82-6.83,41.31,41.31,0,0,0-21.53,36.38h78.71A41.31,41.31,0,0,0-379,233.68Z" transform="translate(886 -128.24)"/><polygon class="cls-18" points="870.57 96.33 870.57 114.6 883.13 114.6 898.79 126.83 898.79 84.09 883.13 96.33 870.57 96.33"/><path class="cls-18" d="M31.69,204.45,28,210.25c6.7,2.89,11.78,12.45,11.78,23.46s-5,20.4-11.61,23.38l3.6,5.82c8.66-4.42,14.82-15.82,14.82-29.2S40.4,208.84,31.69,204.45Z" transform="translate(886 -128.24)"/><path class="cls-18" d="M24.53,215.73l-3.6,5.67c3,2.65,5,7.22,5,12.31a16.8,16.8,0,0,1-4.72,12.07l3.55,5.74c4.8-3.79,8-10.36,8-17.81S29.45,219.49,24.53,215.73Z" transform="translate(886 -128.24)"/><path class="cls-18" d="M306,217.31a34.64,34.64,0,1,0,34.64,34.64A34.64,34.64,0,0,0,306,217.31Zm0,61.7A27.06,27.06,0,1,1,333,251.94,27.09,27.09,0,0,1,306,279Z" transform="translate(886 -128.24)"/><path class="cls-18" d="M322.7,251.72H308.12V233.37a3.25,3.25,0,0,0-6.49,0V256.7a3.23,3.23,0,0,0,5.16,2.61h15.92a3.79,3.79,0,0,0,0-7.58Z" transform="translate(886 -128.24)"/><path id="circle" class="cls-18" d="M556.95,347.7a8.67,8.67,0,1,1-8.68-8.68A8.66,8.66,0,0,1,556.95,347.7Z" transform="translate(886 -128.24)"/><path class="cls-18" d="M582.11,355.87H570.7a31.17,31.17,0,0,0-30.54-30.64V313.86a42.61,42.61,0,0,1,41.94,42Z" transform="translate(886 -128.24)"/><path class="cls-18" d="M604.31,355.87H592.92A53.45,53.45,0,0,0,540.19,303V291.64a64.84,64.84,0,0,1,64.12,64.23Z" transform="translate(886 -128.24)"/><path class="cls-18" d="M846.81,181c15.84,0,28.67,10.35,28.67,23.13A20.22,20.22,0,0,1,870,217.76L875.29,231l-22.57-4.54c-2.36.07-5,.64-7.65.7h-.9c-15.35,0-26-10.52-26-23.05,0-12.78,12.83-23.13,28.67-23.13m0,6.27c-12.35,0-22.4,7.57-22.4,16.86,0,9.56,8.5,16.78,19.76,16.78h.73c1.06,0,2.22-.17,3.45-.33s2.75-.34,4.19-.38l.71,0,.7.14,11.18,2.25-1-2.47-1.47-3.64,2.63-2.91a14.13,14.13,0,0,0,3.89-9.42c0-9.29-10-16.86-22.4-16.86Z" transform="translate(886 -128.24)"/><polygon class="cls-18" points="1891.7 149.64 1882.35 159 1882.35 159 1899.97 176.62 1929.75 146.84 1922.95 139.92 1900.16 158.84 1891.7 149.64"/><path class="cls-18" d="M1027.25,312.48H972.62V250.76h6.49v2.46a2.38,2.38,0,0,0,2.38,2.38h.59a2.38,2.38,0,0,0,2.38-2.37v-2.46h6.94v2.46a2.38,2.38,0,0,0,2.38,2.38h.59a2.38,2.38,0,0,0,2.38-2.37v-2.46h6.94v2.46a2.38,2.38,0,0,0,2.38,2.38h.59a2.38,2.38,0,0,0,2.38-2.37v-2.46H1016v2.46a2.38,2.38,0,0,0,2.38,2.38h.59a2.38,2.38,0,0,0,2.38-2.37v-2.46h1.42l4.52,4.44v13.3l4.75-3.94V253.2l-7.33-7.19h-3.36V243.6a2.38,2.38,0,0,0-2.37-2.37h-.59a2.38,2.38,0,0,0-2.37,2.38V246H1009V243.6a2.38,2.38,0,0,0-2.37-2.37h-.59a2.38,2.38,0,0,0-2.37,2.38V246h-6.94V243.6a2.38,2.38,0,0,0-2.37-2.37h-.59a2.38,2.38,0,0,0-2.37,2.38V246h-6.94V243.6a2.38,2.38,0,0,0-2.37-2.37h-.59a2.38,2.38,0,0,0-2.37,2.38V246H967.87v71.22H1032v-22l-4.75,4.75Z" transform="translate(886 -128.24)"/><path class="cls-18" d="M1209.18,220.25V175l0-.15h-.07l-44,5.9h0V216.5a14.32,14.32,0,0,0-5.75-.58c-6.47.63-11.32,5.24-10.83,10.29s6.13,8.65,12.6,8,11.32-5.23,10.83-10.29a1.28,1.28,0,0,1,0-.25v-31l30.35-4.43v24.85a14.37,14.37,0,0,0-5.75-.59c-6.47.63-11.32,5.24-10.83,10.29s6.14,8.64,12.6,8,11.32-5.24,10.83-10.29A1.65,1.65,0,0,1,1209.18,220.25Z" transform="translate(886 -128.24)"/><path class="cls-2" d="M-264.2,267.18l-6.83-6.35a8.85,8.85,0,0,0-7.4-2.07l-7.84,1.6a8.84,8.84,0,0,0-6,4.81l-3.67,8.24-30,6.14a13.18,13.18,0,0,0-10.24,15.51l6.32,30.9a13.18,13.18,0,0,0,15.51,10.24l59.23-12.12a13.18,13.18,0,0,0,10.24-15.51l-6.32-30.9A13.19,13.19,0,0,0-264.2,267.18Zm-22.06.66a2.35,2.35,0,0,1,.57-.62,2.4,2.4,0,0,1,.73-.42l7.84-1.6a2.45,2.45,0,0,1,.83.1,2.4,2.4,0,0,1,.77.35l3.17,2.95L-288,271.79Zm-3.21,52.43a18.73,18.73,0,0,1-22.09-14.58A18.73,18.73,0,0,1-297,283.6a18.74,18.74,0,0,1,22.08,14.58A18.74,18.74,0,0,1-289.47,320.27Zm-32.67,4.11-6.32-30.9a5.33,5.33,0,0,1,4.1-6.2l8.61-1.76a27.8,27.8,0,0,0-4.82,22,27.85,27.85,0,0,0,14.16,19l-9.53,1.95A5.33,5.33,0,0,1-322.15,324.38Zm69.53-14.22a5.33,5.33,0,0,1-4.1,6.2l-14.72,3a27.86,27.86,0,0,0,5.56-23A27.8,27.8,0,0,0-278.95,278l13.81-2.82a5.33,5.33,0,0,1,6.2,4.1Z" transform="translate(886 -128.24)"/><path class="cls-2" d="M166.53,256.45l-29.21-15.27a3.76,3.76,0,0,0-5.05,1.58l-18.75,35.85a3.76,3.76,0,0,0,1.58,5.06l29.21,15.27a3.76,3.76,0,0,0,5.06-1.58l18.75-35.85A3.76,3.76,0,0,0,166.53,256.45Zm-2.75,3.64-3.17,6.06-27.88-14.58,3.17-6.06ZM117.85,280l13.49-25.81,27.88,14.58-13.49,25.81Z" transform="translate(886 -128.24)"/><circle class="cls-2" cx="134.02" cy="262.85" r="3.08" transform="translate(724.98 131.58) rotate(-62.4)"/><circle class="cls-2" cx="141.97" cy="267.02" r="3.08" transform="translate(725.57 140.86) rotate(-62.4)"/><circle class="cls-2" cx="149.93" cy="271.18" r="3.08" transform="translate(726.15 150.14) rotate(-62.4)"/><circle class="cls-2" cx="130.17" cy="270.22" r="3.08" transform="translate(716.39 132.12) rotate(-62.4)"/><circle class="cls-2" cx="138.12" cy="274.38" r="3.08" transform="translate(716.98 141.4) rotate(-62.4)"/><circle class="cls-2" cx="146.08" cy="278.54" r="3.08" transform="translate(717.56 150.68) rotate(-62.4)"/><circle class="cls-2" cx="126.32" cy="277.58" r="3.08" transform="translate(707.8 132.66) rotate(-62.4)"/><circle class="cls-2" cx="134.27" cy="281.74" r="3.08" transform="translate(708.38 141.94) rotate(-62.4)"/><circle class="cls-2" cx="142.23" cy="285.9" r="3.08" transform="translate(708.97 151.22) rotate(-62.4)"/><path class="cls-2" d="M-70.15,263.49l-26.46-12.3L-111.4,283l31.81,14.79,12.37-26.6Zm-7.91.55-4.09,8.8-3.48-1.62,4.09-8.8Zm-3.39,28.65-24.85-11.55,11.55-24.85,4.4,2-5.71,12.29,15.76,7.33,5.71-12.29,1.4.65,1.8,4.72Z" transform="translate(886 -128.24)"/><path class="cls-2" d="M-171.92,250.67l-8.78,10.74-3.12-2.55a3.12,3.12,0,0,0-4.39.44,3.12,3.12,0,0,0,.44,4.39l3.91,3.2a8.91,8.91,0,0,0,3,8.75l12.9,10.55a89.37,89.37,0,0,0,14,9.15c3.91,1.93,9.64.4,12.75-3.4l5.64-6.89c3.11-3.8,3.39-9.78.64-13.3a92.9,92.9,0,0,0-11.91-12l-12.56-10.28A8.94,8.94,0,0,0-171.92,250.67Zm28.3,33.52a3.51,3.51,0,0,1-4.94.49,3.51,3.51,0,0,1-.49-4.94,3.51,3.51,0,0,1,4.94-.49A3.51,3.51,0,0,1-143.62,284.19Zm-10.53-22.78a1.79,1.79,0,0,1,.25,2.51l-11.63,14.21a1.79,1.79,0,0,1-2.51.25l-8.65-7.08a1.79,1.79,0,0,1-.25-2.51l11.63-14.21a1.79,1.79,0,0,1,2.51-.25Z" transform="translate(886 -128.24)"/><path class="cls-2" d="M135.15,211.48A10.91,10.91,0,1,1,142,192.06l-5.41,4.68,14.25,2.1,0-14.4-5,4.33A15.87,15.87,0,1,0,150.09,206L145,205.2A10.92,10.92,0,0,1,135.15,211.48Z" transform="translate(886 -128.24)"/><path class="cls-2" d="M-76,189.8a2,2,0,0,0-2.87-.14L-96,205.26a2,2,0,0,0-.14,2.87l6.13,6.78a2,2,0,0,0,2.86.14L-70,199.45a2,2,0,0,0,.14-2.87Z" transform="translate(886 -128.24)"/><path class="cls-2" d="M-47.62,154.56A22.45,22.45,0,0,0-55,153.31a22.5,22.5,0,0,0-21.25,15.14A22.48,22.48,0,0,0-62.32,197,22.51,22.51,0,0,0-55,198.29a22.5,22.5,0,0,0,21.25-15.14A22.48,22.48,0,0,0-47.62,154.56Zm8.14,26.61A16.41,16.41,0,0,1-55,192.2a16.31,16.31,0,0,1-5.36-.91A16.29,16.29,0,0,1-69.71,183a16.28,16.28,0,0,1-.75-12.52,16.4,16.4,0,0,1,15.49-11,16.42,16.42,0,0,1,5.36.91,16.28,16.28,0,0,1,9.38,8.33A16.28,16.28,0,0,1-39.48,181.16Z" transform="translate(886 -128.24)"/><path class="cls-2" d="M176,346.75l-15.43-1.45-8.24-13.19-7.47,4.66,4.68,7.49-16.08-1.51-15.08,40,8.23,3.1h0l1.62-4.3,17,27.25,42.35-26.44-17-27.25,4.58.43Zm4.87,34-9.56,6L161.48,371l-14.93,9.32,9.84,15.76-9.56,6-16.07-25.74,8.91-23.63L164.81,355Z" transform="translate(886 -128.24)"/><path class="cls-2" d="M687.32,292l-.48-14.39L698,268.42l-5.18-6.33-6.35,5.2-.5-15-38.62-9.17-1.89,8h0l4.16,1L626.52,271l29.37,35.91L679,288l.14,4.27Zm-30.78,8.51-6.63-8.11,13.36-10.93-10.35-12.66-13.36,10.93-6.63-8.11,21.83-17.86,22.84,5.42.78,23.46Z" transform="translate(886 -128.24)"/><path class="cls-2" d="M57.06,402.36l6.68-8.86L46.29,380.34l-3.43-8.83-20-15.06-33.65,44.63L33.1,434.15c5.89,4.44,12.6-3.89,14.46-6.36L63.22,407ZM24.2,365.9l13.06,9.85,2.74,7,.7,1.79,1.53,1.15,12.06,9.1-2.62,3.47L22.06,376,7.32,395.53c-1.52,2-4.54,3.53-8.34,4.46l-.31-.23Zm20.28,59.58c-1,1.32-6.12,7.81-9.06,5.6L-.67,403.87c5.07-1.17,9-3.24,11.07-6l12.42-16.48,35,26.39Z" transform="translate(886 -128.24)"/><path class="cls-2" d="M748.19,301.31l-1.38-7.06L732.9,297l-5.75-2.17-15.93,3.11,6.95,35.58,35-6.83c4.69-.92,3.58-7.76,3.2-9.73l-3.24-16.57Zm-31.83,0,10.41-2,4.59,1.73,1.16.44,1.22-.24,9.62-1.88.54,2.77-23.61,4.61,3,15.59c.31,1.61-.27,3.72-1.46,6l-.24,0Zm37.53,16c.21,1.05,1.12,6.34-1.23,6.8l-28.77,5.62c1.64-3,2.33-5.74,1.89-7.95l-2.57-13.13,27.91-5.45Z" transform="translate(886 -128.24)"/><path class="cls-2" d="M-72.29,339.89l-.91-1.41,4-2.56.91,1.41a1.62,1.62,0,0,0,2.23.48l.34-.22a1.62,1.62,0,0,0,.48-2.23l-.91-1.41,4-2.56.91,1.41a1.62,1.62,0,0,0,2.23.48l.34-.22a1.62,1.62,0,0,0,.48-2.23l-.91-1.41.81-.52,4.22.87,2.62,4.06,2.72-1.75-3.35-5.2L-59,325.47l-1.92,1.24-.89-1.38a1.62,1.62,0,0,0-2.23-.48l-.34.22a1.62,1.62,0,0,0-.48,2.23l.89,1.38-4,2.56-.89-1.38a1.62,1.62,0,0,0-2.23-.48l-.34.22a1.62,1.62,0,0,0-.48,2.23l.89,1.38-4,2.56-.89-1.38a1.62,1.62,0,0,0-2.23-.48l-.34.22a1.62,1.62,0,0,0-.48,2.23l.89,1.38-4,2.56-.89-1.38a1.62,1.62,0,0,0-2.23-.48l-.34.22a1.62,1.62,0,0,0-.48,2.23l.89,1.38-6.43,4.14,26.25,40.75,12-7.73-.36-1.05-.71-2.11-10,6.42L-87,347.37l3.71-2.39.91,1.41a1.62,1.62,0,0,0,2.23.48l.34-.22a1.62,1.62,0,0,0,.48-2.23l-.91-1.41,4-2.56.91,1.41a1.62,1.62,0,0,0,2.23.48l.34-.22A1.62,1.62,0,0,0-72.29,339.89Z" transform="translate(886 -128.24)"/><path class="cls-2" d="M-37.31,336.88l-7.15-1.55a3.21,3.21,0,0,0-3.83,2.41h0l-5.64,26.08-.12.52,4.32,12.73,9.18-9.8.35-1.7h0l5.39-24.91h0A3.21,3.21,0,0,0-37.31,336.88Zm-14.91,27.84,9.84,2.13-4.71,5-2.94-.72Zm8.55-2.28-5.58-1.21,4-18.69,5.58,1.21Z" transform="translate(886 -128.24)"/><path class="cls-2" d="M795.32,278.63l-.91-1.41,4-2.56.91,1.41a1.62,1.62,0,0,0,2.23.48l.34-.22a1.62,1.62,0,0,0,.48-2.23l-.91-1.41,4-2.56.91,1.41a1.62,1.62,0,0,0,2.23.48l.34-.22a1.62,1.62,0,0,0,.48-2.23l-.91-1.41.81-.52,4.22.87,2.62,4.06,2.72-1.75-3.35-5.2-6.85-1.41-1.92,1.24-.89-1.38a1.62,1.62,0,0,0-2.23-.48l-.34.22a1.62,1.62,0,0,0-.48,2.23l.89,1.38-4,2.56-.89-1.38a1.62,1.62,0,0,0-2.23-.48l-.34.22a1.62,1.62,0,0,0-.48,2.23l.89,1.38-4,2.56-.89-1.38a1.62,1.62,0,0,0-2.23-.48l-.34.22a1.62,1.62,0,0,0-.48,2.23l.89,1.38-4,2.56-.89-1.38a1.62,1.62,0,0,0-2.23-.48l-.34.22a1.62,1.62,0,0,0-.48,2.23l.89,1.38-6.43,4.14L802.4,325.9l12-7.73-.36-1.05-.71-2.11-10,6.42-22.75-35.31,3.71-2.39.91,1.41a1.62,1.62,0,0,0,2.23.48l.34-.22a1.62,1.62,0,0,0,.48-2.23l-.91-1.41,4-2.56.91,1.41a1.62,1.62,0,0,0,2.23.48l.34-.22A1.62,1.62,0,0,0,795.32,278.63Z" transform="translate(886 -128.24)"/><path class="cls-2" d="M830.3,275.62l-7.15-1.55a3.21,3.21,0,0,0-3.83,2.41h0l-5.64,26.08-.12.52,4.32,12.73,9.18-9.8.35-1.7h0l5.39-24.91h0A3.21,3.21,0,0,0,830.3,275.62Zm-14.91,27.84,9.84,2.13-4.71,5-2.94-.72Zm8.55-2.28L818.36,300l4-18.69,5.58,1.21Z" transform="translate(886 -128.24)"/><path class="cls-2" d="M-501.7,226.35a27.42,27.42,0,0,0-35.44,15.74,27.42,27.42,0,0,0,15.74,35.44A27.42,27.42,0,0,0-486,261.79,27.42,27.42,0,0,0-501.7,226.35Zm-17.54,45.59a21.45,21.45,0,0,1-12.3-27.69,21.45,21.45,0,0,1,27.69-12.3,21.45,21.45,0,0,1,12.3,27.69A21.45,21.45,0,0,1-519.24,271.94Z" transform="translate(886 -128.24)"/><path class="cls-2" d="M-499.12,256.54l-10.78-4.14,5.22-13.57a2.57,2.57,0,0,0-1.48-3.32,2.57,2.57,0,0,0-3.32,1.48l-6.63,17.23a2.57,2.57,0,0,0,1.48,3.32,2.55,2.55,0,0,0,1.59.07l11.77,4.52a3,3,0,0,0,3.87-1.72A3,3,0,0,0-499.12,256.54Z" transform="translate(886 -128.24)"/><path class="cls-2" d="M958,351.63a27.42,27.42,0,1,0,35.48,15.65A27.42,27.42,0,0,0,958,351.63Zm17.66,45.54a21.42,21.42,0,1,1,12.23-27.72A21.45,21.45,0,0,1,975.62,397.17Z" transform="translate(886 -128.24)"/><path class="cls-2" d="M980.16,372.25l-10.76,4.18-5.26-13.55a2.57,2.57,0,0,0-4.79,1.86L966,382a2.56,2.56,0,0,0,4.55.45l11.75-4.57a3,3,0,0,0-2.17-5.59Z" transform="translate(886 -128.24)"/></svg>